<?xml version="1.0" encoding="UTF-8"?>
<svg width="504px" height="629px" viewBox="0 0 504 629" xmlns="http://www.w3.org/2000/svg" xmlns:xlink="http://www.w3.org/1999/xlink" version="1.1">
 <!-- Generated by Pixelmator Pro 2.0.8 -->
 <g id="open-box">
  <path id="Path" d="M315.009 449.976 C313.889 450.585 312.659 450.874 311.439 450.874 309.499 450.874 307.579 450.124 306.139 448.685 L254.199 396.746 C252.779 395.326 251.999 393.406 251.999 391.435 251.999 393.406 251.219 395.326 249.799 396.746 L197.859 448.685 C196.419 450.124 194.499 450.874 192.559 450.874 191.339 450.874 190.109 450.585 188.989 449.976 L59.5 379.792 59.5 521.478 C59.499 521.738 59.512 521.996 59.538 522.251 59.549 522.36 59.57 522.466 59.585 522.573 59.604 522.704 59.619 522.835 59.645 522.964 59.677 523.128 59.721 523.286 59.763 523.444 59.783 523.518 59.798 523.592 59.82 523.665 59.869 523.827 59.928 523.983 59.987 524.14 60.013 524.21 60.035 524.281 60.064 524.351 60.122 524.492 60.189 524.628 60.255 524.765 60.296 524.849 60.333 524.933 60.377 525.017 60.437 525.128 60.503 525.236 60.568 525.343 60.63 525.446 60.689 525.55 60.755 525.652 60.81 525.736 60.872 525.814 60.931 525.894 61.016 526.013 61.1 526.13 61.192 526.244 61.243 526.307 61.3 526.365 61.353 526.426 61.459 526.549 61.565 526.67 61.679 526.785 61.739 526.846 61.803 526.9 61.865 526.957 61.979 527.065 62.091 527.172 62.212 527.272 62.329 527.37 62.453 527.457 62.575 527.547 62.647 527.6 62.714 527.656 62.788 527.707 63.003 527.852 63.226 527.986 63.456 528.111 L248.432 628.097 C249.546 628.699 250.772 628.999 251.999 628.999 253.226 628.999 254.453 628.698 255.565 628.097 L440.541 528.111 C440.771 527.986 440.994 527.851 441.209 527.707 441.283 527.656 441.351 527.6 441.422 527.547 441.545 527.457 441.669 527.369 441.785 527.272 441.906 527.172 442.018 527.065 442.132 526.957 442.193 526.9 442.258 526.846 442.317 526.785 442.431 526.67 442.537 526.549 442.643 526.426 442.696 526.365 442.753 526.307 442.804 526.244 442.896 526.131 442.98 526.014 443.065 525.894 443.124 525.814 443.186 525.736 443.241 525.652 443.307 525.55 443.366 525.447 443.428 525.343 443.493 525.235 443.56 525.128 443.619 525.017 443.663 524.933 443.7 524.849 443.741 524.765 443.807 524.628 443.874 524.492 443.932 524.351 443.961 524.281 443.983 524.21 444.009 524.14 444.068 523.984 444.127 523.827 444.176 523.665 444.198 523.593 444.213 523.518 444.233 523.444 444.275 523.286 444.319 523.128 444.351 522.964 444.377 522.835 444.392 522.704 444.411 522.573 444.426 522.466 444.448 522.36 444.458 522.251 444.484 521.995 444.497 521.737 444.496 521.478 L444.496 379.792 Z" fill="#e2ae83" fill-opacity="1" stroke="none"/>
  <path id="Path-1" d="M248.069 183.044 C250.149 181.925 251.579 179.874 251.919 177.534 251.969 177.175 251.999 176.815 251.999 176.454 251.999 176.815 252.029 177.175 252.079 177.524 252.419 179.864 253.849 181.905 255.929 183.034 L440.929 283.034 C442.059 283.645 443.279 283.934 444.499 283.934 443.279 283.934 442.059 284.235 440.929 284.844 L255.929 384.844 C253.849 385.965 252.419 388.014 252.079 390.354 252.029 390.715 251.999 391.075 251.999 391.434 251.999 391.075 251.969 390.715 251.919 390.354 251.579 388.014 250.149 385.965 248.069 384.844 L63.069 284.844 C62.079 284.315 61.019 284.014 59.959 283.944 61.019 283.874 62.079 283.575 63.069 283.044 Z" fill="#c48d69" fill-opacity="1" stroke="none"/>
  <path id="Path-2" d="M503.359 223.406 C503.699 225.746 502.929 228.105 501.259 229.785 L449.819 281.717 C448.379 283.176 446.449 283.936 444.499 283.936 443.279 283.936 442.059 283.647 440.929 283.036 L255.929 183.036 C253.849 181.907 252.419 179.866 252.079 177.526 252.029 177.176 251.999 176.817 251.999 176.456 251.999 176.446 251.999 176.446 251.999 176.436 251.999 174.467 252.779 172.545 254.199 171.137 L306.139 119.196 C308.479 116.846 312.089 116.327 315.009 117.907 L499.509 217.907 C501.589 219.025 503.009 221.066 503.359 223.406 Z" fill="#d39c72" fill-opacity="1" stroke="none"/>
  <path id="Path-3" d="M501.259 338.095 C502.929 339.775 503.699 342.136 503.359 344.476 503.009 346.806 501.589 348.845 499.509 349.976 L315.009 449.976 C313.889 450.585 312.659 450.874 311.439 450.874 309.499 450.874 307.579 450.124 306.139 448.685 L254.199 396.746 C252.779 395.326 251.999 393.406 251.999 391.435 251.999 391.076 252.029 390.716 252.079 390.355 252.419 388.015 253.849 385.966 255.929 384.845 L440.929 284.845 C442.059 284.236 443.279 283.935 444.499 283.935 446.449 283.935 448.379 284.705 449.819 286.156 Z" fill="#f2c397" fill-opacity="1" stroke="none"/>
  <g id="group">
   <path id="Path-4" d="M501.259 338.095 L449.819 286.156 C448.379 284.705 446.449 283.935 444.499 283.935 443.279 283.935 442.059 284.236 440.929 284.845 L421.397 295.409 C422.527 294.8 423.747 294.499 424.967 294.499 426.917 294.499 428.847 295.269 430.287 296.72 L481.727 348.659 C483.397 350.339 484.168 352.7 483.827 355.04 483.477 357.37 482.057 359.409 479.977 360.54 L499.509 349.976 C501.589 348.845 503.009 346.806 503.359 344.476 503.699 342.136 502.929 339.775 501.259 338.095 Z" fill="#e2ae83" fill-opacity="1" stroke="none"/>
   <path id="Path-5" d="M251.999 176.435 L251.999 176.455 C251.999 176.816 251.969 177.176 251.919 177.535 251.579 179.875 250.149 181.926 248.069 183.045 L63.069 283.045 C62.079 283.576 61.019 283.875 59.959 283.945 59.749 283.935 59.529 283.935 59.319 283.945 57.429 283.906 55.579 283.146 54.179 281.736 L2.739 229.794 C1.069 228.114 0.299 225.755 0.639 223.415 0.989 221.085 2.409 219.044 4.489 217.915 L188.989 117.915 C191.909 116.335 195.519 116.864 197.859 119.204 L249.799 171.145 C251.219 172.566 251.989 174.476 251.999 176.435 Z" fill="#e2ae83" fill-opacity="1" stroke="none"/>
  </g>
  <path id="Path-6" d="M251.919 390.355 C251.969 390.716 251.999 391.076 251.999 391.435 251.999 393.406 251.219 395.326 249.799 396.746 L197.859 448.685 C196.419 450.124 194.499 450.874 192.559 450.874 191.339 450.874 190.109 450.585 188.989 449.976 L4.489 349.976 C2.409 348.845 0.989 346.806 0.639 344.476 0.299 342.136 1.069 339.775 2.739 338.095 L54.179 286.156 C55.579 284.746 57.429 283.986 59.319 283.945 59.379 283.955 59.439 283.955 59.499 283.955 59.649 283.955 59.799 283.955 59.959 283.945 61.019 284.015 62.079 284.316 63.069 284.845 L248.069 384.845 C250.149 385.966 251.579 388.015 251.919 390.355 Z" fill="#ffd2a6" fill-opacity="1" stroke="none"/>
  <path id="Path-7" d="M59.959 283.945 C59.799 283.955 59.649 283.955 59.499 283.955 59.439 283.955 59.379 283.955 59.319 283.945 59.529 283.935 59.749 283.935 59.959 283.945 Z" fill="#e2ae83" fill-opacity="1" stroke="none"/>
  <path id="Path-8" d="M442.332 380.966 C442.234 381.154 442.133 381.224 442.03 381.13 L442.029 381.13 414.495 396.054 414.495 537.729 C414.495 537.989 414.483 538.247 414.457 538.502 414.446 538.611 414.425 538.717 414.41 538.824 414.391 538.955 414.376 539.086 414.35 539.215 414.318 539.379 414.274 539.537 414.232 539.695 414.212 539.769 414.197 539.843 414.175 539.916 414.126 540.078 414.067 540.234 414.008 540.391 413.982 540.461 413.96 540.532 413.931 540.602 413.873 540.743 413.806 540.879 413.74 541.016 413.7 541.1 413.662 541.184 413.618 541.268 413.558 541.379 413.492 541.487 413.427 541.594 413.366 541.698 413.306 541.801 413.24 541.903 413.185 541.987 413.123 542.065 413.064 542.145 412.979 542.264 412.895 542.381 412.803 542.495 412.752 542.558 412.695 542.616 412.642 542.677 412.535 542.8 412.43 542.921 412.316 543.036 412.256 543.097 412.192 543.151 412.131 543.208 412.017 543.315 411.905 543.423 411.784 543.522 411.667 543.62 411.543 543.708 411.421 543.797 411.349 543.85 411.282 543.906 411.208 543.957 411.159 543.989 411.106 544.017 411.057 544.049 L440.543 528.11 C440.773 527.985 440.996 527.85 441.211 527.706 441.285 527.655 441.353 527.599 441.424 527.546 441.547 527.456 441.671 527.368 441.787 527.271 441.908 527.171 442.02 527.064 442.134 526.956 442.195 526.899 442.26 526.845 442.319 526.784 442.433 526.669 442.539 526.548 442.645 526.425 442.698 526.364 442.755 526.306 442.806 526.243 442.898 526.13 442.982 526.013 443.067 525.893 443.126 525.813 443.188 525.735 443.243 525.651 443.309 525.549 443.368 525.446 443.43 525.342 443.495 525.234 443.562 525.127 443.621 525.016 443.665 524.932 443.702 524.848 443.743 524.764 443.809 524.627 443.876 524.491 443.934 524.35 443.963 524.28 443.985 524.209 444.011 524.139 444.07 523.983 444.129 523.826 444.178 523.664 444.2 523.592 444.215 523.517 444.235 523.443 444.277 523.285 444.321 523.127 444.353 522.963 444.379 522.834 444.394 522.703 444.413 522.572 444.428 522.465 444.45 522.359 444.46 522.25 444.486 521.994 444.499 521.736 444.498 521.477 L444.498 379.792 Z" fill="#d39c72" fill-opacity="1" stroke="none"/>
  <path id="Path-9" d="M249.799 396.746 L197.859 448.685 C196.419 450.124 194.499 450.874 192.559 450.874 191.339 450.874 190.109 450.585 188.989 449.976 L59.5 379.792 59.5 521.478 C59.499 521.738 59.512 521.996 59.538 522.251 59.549 522.36 59.57 522.466 59.585 522.573 59.604 522.704 59.619 522.835 59.645 522.964 59.677 523.128 59.721 523.286 59.763 523.444 59.783 523.518 59.798 523.592 59.82 523.665 59.869 523.827 59.928 523.983 59.987 524.14 60.013 524.21 60.035 524.281 60.064 524.351 60.122 524.492 60.189 524.628 60.255 524.765 60.296 524.849 60.333 524.933 60.377 525.017 60.437 525.128 60.503 525.236 60.568 525.343 60.63 525.446 60.689 525.55 60.755 525.652 60.81 525.736 60.872 525.814 60.931 525.894 61.016 526.013 61.1 526.13 61.192 526.244 61.243 526.307 61.3 526.365 61.353 526.426 61.459 526.549 61.565 526.67 61.679 526.785 61.739 526.846 61.803 526.9 61.865 526.957 61.979 527.065 62.091 527.172 62.212 527.272 62.329 527.37 62.453 527.457 62.575 527.547 62.647 527.6 62.714 527.656 62.788 527.707 63.003 527.852 63.226 527.986 63.456 528.111 L248.432 628.097 C249.546 628.699 250.772 628.999 251.999 628.999 L251.999 391.435 C251.999 393.406 251.219 395.326 249.799 396.746 Z" fill="#f2c397" fill-opacity="1" stroke="none"/>
  <g id="group-1"/>
  <g id="group-2"/>
  <g id="group-3"/>
  <g id="group-4"/>
  <g id="group-5"/>
  <g id="group-6"/>
  <g id="group-7"/>
  <g id="group-8"/>
  <g id="group-9"/>
  <g id="group-10"/>
  <g id="group-11"/>
  <g id="group-12"/>
  <g id="group-13"/>
  <g id="group-14"/>
  <g id="group-15"/>
 </g>
 <g id="flock-of-birds">
  <path id="Path-10" d="M293.583 284.604 C269.263 279.466 245.209 284.018 225.261 295.524 211.65 276.927 191.506 263.028 167.187 257.891 114.848 246.826 63.412 280.297 52.348 332.657 52.305 332.858 52.264 333.061 52.222 333.262 51.86 335.002 52.777 336.763 54.408 337.479 56.038 338.198 57.944 337.683 58.987 336.241 79.839 307.572 116.728 300.793 156.344 309.166 180.663 314.305 200.819 328.209 214.419 346.799 234.367 335.302 258.435 330.744 282.752 335.878 322.368 344.244 353.341 365.368 360.829 400.014 361.206 401.755 362.736 402.993 364.519 403 366.301 403.008 367.831 401.769 368.22 400.036 368.263 399.834 368.303 399.641 368.345 399.445 379.414 347.078 345.922 295.661 293.583 284.604 Z" fill="#f05138" fill-opacity="1" stroke="none"/>
  <path id="Path-11" d="M428.886 189.145 C409.925 180.306 389.34 179.471 370.783 185.109 363.157 167.277 349.29 152.048 330.331 143.209 289.504 124.181 240.965 141.852 221.935 182.68 221.935 182.68 221.922 182.692 221.922 182.708 221.266 184.106 221.686 185.778 222.925 186.709 224.149 187.642 225.875 187.593 227.044 186.59 249.565 167.353 280.942 168.863 311.69 183.193 330.651 192.033 344.528 207.261 352.143 225.095 370.685 219.454 391.286 220.29 410.247 229.124 441.609 243.746 463.171 267.432 462.028 297.917 461.988 299.275 462.89 300.478 464.2 300.819 465.522 301.152 466.887 300.52 467.485 299.309 467.778 298.717 468.07 298.124 468.347 297.529 487.377 256.7 469.699 208.168 428.886 189.145 Z" fill="#f05138" fill-opacity="1" stroke="none"/>
  <path id="Path-12" d="M184.324 42.08 C185.172 42.435 186.16 42.15 186.704 41.392 196.853 26.894 215.238 23.066 235.172 26.754 247.464 29.023 257.779 35.76 264.85 44.94 274.733 38.893 286.788 36.289 299.093 38.564 319.027 42.247 334.812 52.393 339.128 69.564 339.35 70.463 340.172 71.083 341.09 71.046 342.009 71.02 342.789 70.351 342.956 69.439 347.855 42.963 330.357 17.524 303.881 12.632 291.576 10.362 279.535 12.957 269.65 19.006 262.579 9.826 252.25 3.089 239.96 0.821 213.469 -4.073 188.037 13.425 183.137 39.908 182.973 40.82 183.46 41.726 184.324 42.08 Z" fill="#f05138" fill-opacity="0.902" stroke="none"/>
  <path id="Path-13" d="M414.283 38.795 C421.311 45.115 425.293 53.537 426.227 62.251 434.981 62.258 443.792 65.348 450.837 71.676 462.697 82.344 468.891 95.763 463.838 109.057 463.643 109.552 463.838 110.109 464.27 110.394 464.716 110.679 465.301 110.616 465.677 110.24 466.094 109.818 466.512 109.379 466.916 108.927 480.529 93.787 479.305 70.471 464.16 56.844 457.129 50.518 448.333 47.434 439.577 47.427 438.645 38.721 434.635 30.293 427.619 23.964 412.475 10.337 389.158 11.569 375.53 26.707 375.057 27.243 375.017 28.016 375.433 28.585 375.836 29.149 376.587 29.35 377.229 29.073 389.505 23.741 402.883 28.543 414.283 38.795 Z" fill="#f05138" fill-opacity="0.755" stroke="none"/>
 </g>
 <g id="open-box-copy">
  <path id="Path-14" d="M315.009 449.976 C313.889 450.585 312.659 450.874 311.439 450.874 309.499 450.874 307.579 450.124 306.139 448.685 L254.199 396.746 C252.779 395.326 251.999 393.406 251.999 391.435 251.999 393.406 251.219 395.326 249.799 396.746 L197.859 448.685 C196.419 450.124 194.499 450.874 192.559 450.874 191.339 450.874 190.109 450.585 188.989 449.976 L59.5 379.792 59.5 521.478 C59.499 521.738 59.512 521.996 59.538 522.251 59.549 522.36 59.57 522.466 59.585 522.573 59.604 522.704 59.619 522.835 59.645 522.964 59.677 523.128 59.721 523.286 59.763 523.444 59.783 523.518 59.798 523.592 59.82 523.665 59.869 523.827 59.928 523.983 59.987 524.14 60.013 524.21 60.035 524.281 60.064 524.351 60.122 524.492 60.189 524.628 60.255 524.765 60.296 524.849 60.333 524.933 60.377 525.017 60.437 525.128 60.503 525.236 60.568 525.343 60.63 525.446 60.689 525.55 60.755 525.652 60.81 525.736 60.872 525.814 60.931 525.894 61.016 526.013 61.1 526.13 61.192 526.244 61.243 526.307 61.3 526.365 61.353 526.426 61.459 526.549 61.565 526.67 61.679 526.785 61.739 526.846 61.803 526.9 61.865 526.957 61.979 527.065 62.091 527.172 62.212 527.272 62.329 527.37 62.453 527.457 62.575 527.547 62.647 527.6 62.714 527.656 62.788 527.707 63.003 527.852 63.226 527.986 63.456 528.111 L248.432 628.097 C249.546 628.699 250.772 628.999 251.999 628.999 253.226 628.999 254.453 628.698 255.565 628.097 L440.541 528.111 C440.771 527.986 440.994 527.851 441.209 527.707 441.283 527.656 441.351 527.6 441.422 527.547 441.545 527.457 441.669 527.369 441.785 527.272 441.906 527.172 442.018 527.065 442.132 526.957 442.193 526.9 442.258 526.846 442.317 526.785 442.431 526.67 442.537 526.549 442.643 526.426 442.696 526.365 442.753 526.307 442.804 526.244 442.896 526.131 442.98 526.014 443.065 525.894 443.124 525.814 443.186 525.736 443.241 525.652 443.307 525.55 443.366 525.447 443.428 525.343 443.493 525.235 443.56 525.128 443.619 525.017 443.663 524.933 443.7 524.849 443.741 524.765 443.807 524.628 443.874 524.492 443.932 524.351 443.961 524.281 443.983 524.21 444.009 524.14 444.068 523.984 444.127 523.827 444.176 523.665 444.198 523.593 444.213 523.518 444.233 523.444 444.275 523.286 444.319 523.128 444.351 522.964 444.377 522.835 444.392 522.704 444.411 522.573 444.426 522.466 444.448 522.36 444.458 522.251 444.484 521.995 444.497 521.737 444.496 521.478 L444.496 379.792 Z" fill="#e2ae83" fill-opacity="1" stroke="none"/>
  <path id="Path-15" d="M501.259 338.095 C502.929 339.775 503.699 342.136 503.359 344.476 503.009 346.806 501.589 348.845 499.509 349.976 L315.009 449.976 C313.889 450.585 312.659 450.874 311.439 450.874 309.499 450.874 307.579 450.124 306.139 448.685 L254.199 396.746 C252.779 395.326 251.999 393.406 251.999 391.435 251.999 391.076 252.029 390.716 252.079 390.355 252.419 388.015 253.849 385.966 255.929 384.845 L440.929 284.845 C442.059 284.236 443.279 283.935 444.499 283.935 446.449 283.935 448.379 284.705 449.819 286.156 Z" fill="#f2c397" fill-opacity="1" stroke="none"/>
  <g id="group-16">
   <path id="Path-16" d="M501.259 338.095 L449.819 286.156 C448.379 284.705 446.449 283.935 444.499 283.935 443.279 283.935 442.059 284.236 440.929 284.845 L421.397 295.409 C422.527 294.8 423.747 294.499 424.967 294.499 426.917 294.499 428.847 295.269 430.287 296.72 L481.727 348.659 C483.397 350.339 484.168 352.7 483.827 355.04 483.477 357.37 482.057 359.409 479.977 360.54 L499.509 349.976 C501.589 348.845 503.009 346.806 503.359 344.476 503.699 342.136 502.929 339.775 501.259 338.095 Z" fill="#e2ae83" fill-opacity="1" stroke="none"/>
  </g>
  <path id="Path-17" d="M251.919 390.355 C251.969 390.716 251.999 391.076 251.999 391.435 251.999 393.406 251.219 395.326 249.799 396.746 L197.859 448.685 C196.419 450.124 194.499 450.874 192.559 450.874 191.339 450.874 190.109 450.585 188.989 449.976 L4.489 349.976 C2.409 348.845 0.989 346.806 0.639 344.476 0.299 342.136 1.069 339.775 2.739 338.095 L54.179 286.156 C55.579 284.746 57.429 283.986 59.319 283.945 59.379 283.955 59.439 283.955 59.499 283.955 59.649 283.955 59.799 283.955 59.959 283.945 61.019 284.015 62.079 284.316 63.069 284.845 L248.069 384.845 C250.149 385.966 251.579 388.015 251.919 390.355 Z" fill="#ffd2a6" fill-opacity="1" stroke="none"/>
  <path id="Path-18" d="M59.959 283.945 C59.799 283.955 59.649 283.955 59.499 283.955 59.439 283.955 59.379 283.955 59.319 283.945 59.529 283.935 59.749 283.935 59.959 283.945 Z" fill="#e2ae83" fill-opacity="1" stroke="none"/>
  <path id="Path-19" d="M442.332 380.966 C442.234 381.154 442.133 381.224 442.03 381.13 L442.029 381.13 414.495 396.054 414.495 537.729 C414.495 537.989 414.483 538.247 414.457 538.502 414.446 538.611 414.425 538.717 414.41 538.824 414.391 538.955 414.376 539.086 414.35 539.215 414.318 539.379 414.274 539.537 414.232 539.695 414.212 539.769 414.197 539.843 414.175 539.916 414.126 540.078 414.067 540.234 414.008 540.391 413.982 540.461 413.96 540.532 413.931 540.602 413.873 540.743 413.806 540.879 413.74 541.016 413.7 541.1 413.662 541.184 413.618 541.268 413.558 541.379 413.492 541.487 413.427 541.594 413.366 541.698 413.306 541.801 413.24 541.903 413.185 541.987 413.123 542.065 413.064 542.145 412.979 542.264 412.895 542.381 412.803 542.495 412.752 542.558 412.695 542.616 412.642 542.677 412.535 542.8 412.43 542.921 412.316 543.036 412.256 543.097 412.192 543.151 412.131 543.208 412.017 543.315 411.905 543.423 411.784 543.522 411.667 543.62 411.543 543.708 411.421 543.797 411.349 543.85 411.282 543.906 411.208 543.957 411.159 543.989 411.106 544.017 411.057 544.049 L440.543 528.11 C440.773 527.985 440.996 527.85 441.211 527.706 441.285 527.655 441.353 527.599 441.424 527.546 441.547 527.456 441.671 527.368 441.787 527.271 441.908 527.171 442.02 527.064 442.134 526.956 442.195 526.899 442.26 526.845 442.319 526.784 442.433 526.669 442.539 526.548 442.645 526.425 442.698 526.364 442.755 526.306 442.806 526.243 442.898 526.13 442.982 526.013 443.067 525.893 443.126 525.813 443.188 525.735 443.243 525.651 443.309 525.549 443.368 525.446 443.43 525.342 443.495 525.234 443.562 525.127 443.621 525.016 443.665 524.932 443.702 524.848 443.743 524.764 443.809 524.627 443.876 524.491 443.934 524.35 443.963 524.28 443.985 524.209 444.011 524.139 444.07 523.983 444.129 523.826 444.178 523.664 444.2 523.592 444.215 523.517 444.235 523.443 444.277 523.285 444.321 523.127 444.353 522.963 444.379 522.834 444.394 522.703 444.413 522.572 444.428 522.465 444.45 522.359 444.46 522.25 444.486 521.994 444.499 521.736 444.498 521.477 L444.498 379.792 Z" fill="#d39c72" fill-opacity="1" stroke="none"/>
  <path id="Path-20" d="M249.799 396.746 L197.859 448.685 C196.419 450.124 194.499 450.874 192.559 450.874 191.339 450.874 190.109 450.585 188.989 449.976 L59.5 379.792 59.5 521.478 C59.499 521.738 59.512 521.996 59.538 522.251 59.549 522.36 59.57 522.466 59.585 522.573 59.604 522.704 59.619 522.835 59.645 522.964 59.677 523.128 59.721 523.286 59.763 523.444 59.783 523.518 59.798 523.592 59.82 523.665 59.869 523.827 59.928 523.983 59.987 524.14 60.013 524.21 60.035 524.281 60.064 524.351 60.122 524.492 60.189 524.628 60.255 524.765 60.296 524.849 60.333 524.933 60.377 525.017 60.437 525.128 60.503 525.236 60.568 525.343 60.63 525.446 60.689 525.55 60.755 525.652 60.81 525.736 60.872 525.814 60.931 525.894 61.016 526.013 61.1 526.13 61.192 526.244 61.243 526.307 61.3 526.365 61.353 526.426 61.459 526.549 61.565 526.67 61.679 526.785 61.739 526.846 61.803 526.9 61.865 526.957 61.979 527.065 62.091 527.172 62.212 527.272 62.329 527.37 62.453 527.457 62.575 527.547 62.647 527.6 62.714 527.656 62.788 527.707 63.003 527.852 63.226 527.986 63.456 528.111 L248.432 628.097 C249.546 628.699 250.772 628.999 251.999 628.999 L251.999 391.435 C251.999 393.406 251.219 395.326 249.799 396.746 Z" fill="#f2c397" fill-opacity="1" stroke="none"/>
  <g id="group-17"/>
  <g id="group-18"/>
  <g id="group-19"/>
  <g id="group-20"/>
  <g id="group-21"/>
  <g id="group-22"/>
  <g id="group-23"/>
  <g id="group-24"/>
  <g id="group-25"/>
  <g id="group-26"/>
  <g id="group-27"/>
  <g id="group-28"/>
  <g id="group-29"/>
  <g id="group-30"/>
  <g id="group-31"/>
 </g>
</svg>
